<?xml version="1.0" standalone="no"?>
<!DOCTYPE svg PUBLIC "-//W3C//DTD SVG 20010904//EN"
 "http://www.w3.org/TR/2001/REC-SVG-20010904/DTD/svg10.dtd">
<svg version="1.0" xmlns="http://www.w3.org/2000/svg"
 width="16.000000pt" height="16.000000pt" viewBox="0 0 16.000000 16.000000"
 preserveAspectRatio="xMidYMid meet">
<metadata>
Created by potrace 1.11, written by Peter Selinger 2001-2013
</metadata>
<g transform="translate(0.000000,16.000000) scale(0.001778,-0.001778)"
fill="#000000" stroke="none">
<path d="M1270 7099 c-14 -5 -77 -25 -140 -45 -63 -20 -142 -45 -175 -56 -64
-21 -77 -25 -85 -26 -3 -1 -32 -11 -65 -22 -33 -12 -64 -23 -70 -24 -5 -2 -37
-11 -70 -21 -33 -11 -62 -19 -65 -20 -3 -1 -93 -30 -200 -65 -107 -35 -198
-65 -202 -66 -5 -1 -11 -2 -15 -3 -5 -1 -14 -5 -22 -10 -12 -8 -12 -11 0 -24
8 -7 25 -29 39 -47 14 -18 30 -38 35 -44 6 -6 30 -38 55 -71 25 -33 47 -62 50
-65 3 -3 21 -25 40 -50 19 -25 39 -50 45 -57 19 -24 31 -38 60 -78 17 -22 32
-42 35 -45 4 -3 19 -23 35 -45 17 -22 32 -42 35 -45 3 -3 28 -34 55 -70 28
-36 52 -67 55 -70 3 -3 35 -43 70 -90 36 -46 72 -94 82 -105 9 -11 46 -58 83
-105 164 -211 176 -225 189 -222 13 4 167 78 289 139 88 43 95 42 50 -7 -31
-35 -68 -77 -111 -129 -20 -24 -56 -64 -79 -90 -24 -25 -43 -49 -43 -52 0 -3
31 -42 68 -85 38 -43 77 -89 88 -102 10 -13 34 -40 52 -60 18 -20 41 -46 51
-57 15 -17 242 -278 330 -380 36 -42 175 -199 181 -205 3 -3 18 -21 34 -40 16
-19 54 -64 86 -100 32 -36 67 -76 78 -90 17 -21 22 -22 36 -11 9 8 30 21 46
30 17 9 74 43 128 76 53 33 100 58 105 57 4 -1 7 2 7 8 0 5 6 10 14 10 8 0 16
4 18 8 4 10 98 65 98 57 0 -9 -93 -129 -102 -133 -5 -2 -8 -8 -8 -14 0 -6 -8
-18 -18 -27 -10 -9 -23 -23 -28 -32 -5 -9 -21 -32 -36 -50 -82 -101 -125 -165
-119 -175 5 -10 73 -85 211 -234 28 -30 182 -198 220 -240 135 -148 185 -202
245 -266 l70 -74 60 56 c33 31 93 86 133 122 41 36 88 80 106 97 18 16 68 62
112 102 43 39 83 75 88 80 5 4 6 -4 2 -20 -4 -16 -9 -48 -12 -70 -3 -23 -9
-64 -14 -92 -5 -27 -12 -68 -15 -90 -3 -23 -7 -52 -10 -65 -3 -13 -7 -42 -10
-65 -4 -22 -8 -51 -10 -65 -7 -40 -36 -223 -40 -250 -2 -14 -11 -70 -20 -125
-9 -55 -19 -112 -20 -127 -4 -24 56 -87 531 -562 l534 -535 536 536 c436 437
534 540 530 557 -6 24 -43 261 -51 324 -3 22 -22 140 -31 192 -2 14 -9 54 -14
90 -5 36 -12 76 -14 90 -3 14 -7 43 -10 65 -3 22 -12 76 -20 120 -7 44 -12 81
-11 83 3 3 12 -3 64 -48 10 -8 67 -60 127 -115 60 -55 131 -121 159 -146 27
-25 73 -67 100 -92 l50 -47 50 53 c161 172 195 208 195 210 0 2 23 27 51 57
28 30 85 93 127 139 43 46 97 105 122 131 25 26 70 75 100 110 30 34 68 75 83
91 27 27 27 29 11 54 -9 14 -20 25 -24 25 -4 0 -12 10 -17 23 -6 12 -33 50
-59 83 -27 34 -65 82 -84 108 -19 26 -40 52 -45 59 -48 57 -76 99 -71 105 4 3
10 2 14 -4 6 -9 291 -183 317 -193 5 -2 12 -7 15 -10 3 -3 23 -16 46 -28 l41
-22 49 59 c27 33 52 60 57 60 4 0 7 5 7 10 0 6 11 21 24 33 19 18 175 196 316
361 14 16 32 37 40 46 13 14 84 96 160 184 14 16 39 44 56 63 18 18 47 52 65
75 19 23 41 49 49 57 18 19 130 148 149 173 11 15 6 26 -45 85 -33 38 -61 70
-64 73 -3 3 -32 37 -65 75 -33 39 -64 73 -70 77 -5 4 -7 9 -4 13 3 3 89 -35
190 -85 l184 -89 18 22 c10 12 25 32 35 45 9 12 22 28 27 35 21 25 121 153
147 187 15 19 74 95 131 168 58 73 114 145 126 160 11 15 29 38 40 52 11 14
74 95 141 180 66 85 126 162 133 170 11 14 68 88 92 118 5 7 18 22 28 33 9 10
17 22 17 25 0 3 7 12 16 21 20 21 13 26 -76 52 -41 12 -82 25 -90 28 -20 8
-21 8 -55 18 -16 4 -34 10 -40 14 -5 3 -15 6 -22 7 -13 2 -80 22 -103 31 -8 4
-18 5 -22 5 -5 -1 -8 2 -8 7 0 5 -6 8 -12 8 -14 -2 -214 61 -493 153 -33 11
-69 22 -80 25 -11 2 -46 13 -79 25 -59 20 -64 19 -99 -9 -31 -26 -53 -44 -129
-103 -68 -53 -384 -304 -418 -331 -8 -7 -55 -44 -105 -82 -49 -39 -99 -78
-110 -87 -36 -30 -191 -152 -219 -173 -30 -22 -55 -43 -98 -81 -15 -13 -32
-24 -37 -24 -5 0 -11 -4 -13 -8 -1 -4 -68 -59 -148 -122 -80 -63 -146 -118
-148 -122 -2 -5 -8 -8 -13 -8 -5 0 -20 -9 -32 -20 -23 -21 -178 -146 -237
-190 -55 -41 -95 -75 -98 -82 -2 -5 -10 -8 -18 -8 -8 0 -14 -4 -14 -8 0 -4
-24 -25 -52 -47 -29 -21 -57 -44 -63 -49 -5 -6 -37 -31 -70 -55 -33 -25 -62
-47 -65 -51 -3 -3 -48 -39 -100 -79 -52 -41 -101 -81 -108 -90 -13 -17 -23
-10 -44 29 -14 26 -116 185 -149 232 -10 15 -19 32 -19 38 0 5 -4 10 -10 10
-5 0 -10 5 -10 11 0 5 -18 37 -40 69 -22 32 -40 63 -40 69 0 5 -3 11 -7 13 -5
2 -35 46 -67 98 -61 97 -166 261 -173 270 -2 2 -218 4 -480 5 -432 0 -478 -1
-498 -16 -31 -25 -295 -292 -295 -299 0 -3 155 -6 345 -5 190 0 345 -2 345 -5
0 -3 -9 -16 -20 -30 -16 -20 -146 -196 -258 -348 -9 -13 -50 -67 -89 -120 -40
-53 -73 -100 -73 -104 0 -16 -26 -7 -60 21 -50 41 -180 144 -290 231 -52 41
-100 79 -106 85 -7 5 -24 19 -40 30 -29 21 -81 62 -100 80 -6 5 -26 21 -44 35
-33 25 -190 149 -222 175 -10 8 -59 47 -110 87 -221 172 -343 271 -346 279 -2
5 -8 9 -12 9 -5 0 -101 73 -213 163 -112 89 -219 173 -237 187 -18 14 -41 32
-51 40 -21 18 -33 28 -209 166 -74 58 -136 110 -138 115 -2 5 -8 9 -13 9 -7 0
-93 67 -183 141 -40 33 -102 79 -106 78 -3 -1 -16 -5 -30 -10z"/>
</g>
</svg>
